<mxfile>
    <diagram id="tJ8CGXLxaykKsRz9Lep4" name="Page-1">
        <mxGraphModel dx="626" dy="1738" grid="1" gridSize="10" guides="1" tooltips="1" connect="1" arrows="1" fold="1" page="1" pageScale="1" pageWidth="850" pageHeight="1100" math="0" shadow="0">
            <root>
                <mxCell id="0"/>
                <mxCell id="1" parent="0"/>
                <mxCell id="5" value="" style="rounded=1;whiteSpace=wrap;html=1;strokeColor=#C73500;fontColor=#ffffff;fillColor=none;" vertex="1" parent="1">
                    <mxGeometry x="200" y="-60" width="140" height="220" as="geometry"/>
                </mxCell>
                <mxCell id="20" style="edgeStyle=orthogonalEdgeStyle;rounded=0;orthogonalLoop=1;jettySize=auto;html=1;exitX=1;exitY=0.5;exitDx=0;exitDy=0;entryX=0;entryY=0.5;entryDx=0;entryDy=0;" edge="1" parent="1" source="2" target="5">
                    <mxGeometry relative="1" as="geometry"/>
                </mxCell>
                <mxCell id="22" value="Stream" style="edgeLabel;html=1;align=center;verticalAlign=middle;resizable=0;points=[];" vertex="1" connectable="0" parent="20">
                    <mxGeometry x="-0.2884" y="-2" relative="1" as="geometry">
                        <mxPoint as="offset"/>
                    </mxGeometry>
                </mxCell>
                <mxCell id="2" value="Write-UiLog" style="rounded=0;whiteSpace=wrap;html=1;" vertex="1" parent="1">
                    <mxGeometry x="20" y="170" width="90" height="40" as="geometry"/>
                </mxCell>
                <mxCell id="3" value="Logging runspace" style="triangle;whiteSpace=wrap;html=1;" vertex="1" parent="1">
                    <mxGeometry x="220" y="170" width="120" height="130" as="geometry"/>
                </mxCell>
                <mxCell id="6" value="Queues" style="text;html=1;strokeColor=none;fillColor=none;align=center;verticalAlign=middle;whiteSpace=wrap;rounded=0;" vertex="1" parent="1">
                    <mxGeometry x="240" y="-90" width="40" height="20" as="geometry"/>
                </mxCell>
                <mxCell id="7" value="Sbase" style="rounded=1;whiteSpace=wrap;html=1;fillColor=#647687;strokeColor=#314354;fontColor=#ffffff;" vertex="1" parent="1">
                    <mxGeometry x="210" y="-50" width="120" height="30" as="geometry"/>
                </mxCell>
                <mxCell id="8" value="A{Name}" style="rounded=1;whiteSpace=wrap;html=1;fillColor=#647687;strokeColor=#314354;fontColor=#ffffff;" vertex="1" parent="1">
                    <mxGeometry x="210" y="120" width="120" height="30" as="geometry"/>
                </mxCell>
                <mxCell id="9" value="SCreate" style="rounded=1;whiteSpace=wrap;html=1;fillColor=#647687;strokeColor=#314354;fontColor=#ffffff;" vertex="1" parent="1">
                    <mxGeometry x="210" y="-10" width="120" height="30" as="geometry"/>
                </mxCell>
                <mxCell id="11" value="Each x Ms" style="shape=step;perimeter=stepPerimeter;whiteSpace=wrap;html=1;fixedSize=1;fillColor=#2a2a2a;" vertex="1" parent="1">
                    <mxGeometry x="380" y="195" width="120" height="80" as="geometry"/>
                </mxCell>
                <mxCell id="12" value="Get Queues" style="rounded=0;whiteSpace=wrap;html=1;fillColor=#2a2a2a;" vertex="1" parent="1">
                    <mxGeometry x="450" y="290" width="120" height="30" as="geometry"/>
                </mxCell>
                <mxCell id="14" value="Foreach Msg in queue" style="shape=step;perimeter=stepPerimeter;whiteSpace=wrap;html=1;fixedSize=1;fillColor=#2a2a2a;" vertex="1" parent="1">
                    <mxGeometry x="480" y="330" width="120" height="30" as="geometry"/>
                </mxCell>
                <mxCell id="15" value="Send to correct logfile" style="rounded=0;whiteSpace=wrap;html=1;fillColor=#2a2a2a;" vertex="1" parent="1">
                    <mxGeometry x="520" y="420" width="120" height="20" as="geometry"/>
                </mxCell>
                <mxCell id="17" value="Create Logfile if not exist" style="rounded=0;whiteSpace=wrap;html=1;fillColor=#2a2a2a;" vertex="1" parent="1">
                    <mxGeometry x="520" y="370" width="120" height="40" as="geometry"/>
                </mxCell>
                <mxCell id="18" value="Message" style="rounded=1;whiteSpace=wrap;html=1;fillColor=#2a2a2a;" vertex="1" parent="1">
                    <mxGeometry x="50" y="220" width="80" height="20" as="geometry"/>
                </mxCell>
                <mxCell id="19" value="Severity" style="rounded=1;whiteSpace=wrap;html=1;fillColor=#2a2a2a;" vertex="1" parent="1">
                    <mxGeometry x="50" y="250" width="80" height="20" as="geometry"/>
                </mxCell>
                <mxCell id="21" value="Stream" style="rounded=1;whiteSpace=wrap;html=1;fillColor=#2a2a2a;" vertex="1" parent="1">
                    <mxGeometry x="50" y="280" width="80" height="20" as="geometry"/>
                </mxCell>
                <mxCell id="24" value="SRunspace" style="rounded=1;whiteSpace=wrap;html=1;fillColor=#647687;strokeColor=#314354;fontColor=#ffffff;" vertex="1" parent="1">
                    <mxGeometry x="210" y="30" width="120" height="30" as="geometry"/>
                </mxCell>
            </root>
        </mxGraphModel>
    </diagram>
</mxfile>